<svg xmlns="http://www.w3.org/2000/svg" xmlns:xlink="http://www.w3.org/1999/xlink" width="17.25" height="23" viewBox="0 0 17.25 23">
  <defs>
    <linearGradient id="linear-gradient" x1="0.5" x2="0.5" y2="1" gradientUnits="objectBoundingBox">
      <stop offset="0" stop-color="#00c6fb"/>
      <stop offset="1" stop-color="#005bea"/>
    </linearGradient>
  </defs>
  <g id="fire" transform="translate(-64 0)">
    <g id="Group_5" data-name="Group 5" transform="translate(64 0)">
      <path id="Path_1521" data-name="Path 1521" d="M81.2,13.466c-.263-3.43-1.861-5.58-3.269-7.477C76.627,4.234,75.5,2.717,75.5.48a.48.48,0,0,0-.26-.426.475.475,0,0,0-.5.036,12.186,12.186,0,0,0-4.5,6.5,21.22,21.22,0,0,0-.493,4.86c-1.954-.417-2.4-3.34-2.4-3.372a.479.479,0,0,0-.684-.364c-.1.05-2.515,1.276-2.656,6.17-.01.163-.01.326-.01.489A8.635,8.635,0,0,0,72.625,23a.067.067,0,0,0,.019,0h.006a8.635,8.635,0,0,0,8.6-8.624C81.25,14.136,81.2,13.466,81.2,13.466Zm-8.576,8.575a2.976,2.976,0,0,1-2.875-3.062c0-.058,0-.116,0-.187a3.884,3.884,0,0,1,.3-1.522,1.75,1.75,0,0,0,1.582,1.146.479.479,0,0,0,.479-.479,9.586,9.586,0,0,1,.184-2.18,4.634,4.634,0,0,1,.97-1.837,6.174,6.174,0,0,0,.988,1.812,5.459,5.459,0,0,1,1.228,2.992c.006.082.012.165.012.254A2.977,2.977,0,0,1,72.625,22.041Z" transform="translate(-64 0)" fill="url(#linear-gradient)"/>
    </g>
  </g>
</svg>
