<svg xmlns="http://www.w3.org/2000/svg" xmlns:xlink="http://www.w3.org/1999/xlink" width="23.25" height="31" viewBox="0 0 23.25 31">
  <defs>
    <linearGradient id="linear-gradient" x1="0.5" x2="0.5" y2="1" gradientUnits="objectBoundingBox">
      <stop offset="0" stop-color="#00c6fb"/>
      <stop offset="1" stop-color="#005bea"/>
    </linearGradient>
  </defs>
  <g id="fire" transform="translate(-64 0)">
    <g id="Group_5" data-name="Group 5" transform="translate(64 0)">
      <path id="Path_1521" data-name="Path 1521" d="M87.184,18.15c-.355-4.623-2.508-7.521-4.407-10.077C81.019,5.706,79.5,3.662,79.5.647a.647.647,0,0,0-.351-.575.64.64,0,0,0-.671.049,16.425,16.425,0,0,0-6.063,8.762,28.6,28.6,0,0,0-.664,6.55c-2.634-.563-3.23-4.5-3.237-4.545a.646.646,0,0,0-.921-.49c-.138.067-3.39,1.719-3.579,8.316-.013.219-.014.44-.014.66A11.638,11.638,0,0,0,75.625,31a.09.09,0,0,0,.026,0h.008A11.638,11.638,0,0,0,87.25,19.375C87.25,19.053,87.184,18.15,87.184,18.15ZM75.625,29.707A4.012,4.012,0,0,1,71.75,25.58c0-.078,0-.156.005-.252a5.235,5.235,0,0,1,.408-2.051A2.358,2.358,0,0,0,74.3,24.822a.645.645,0,0,0,.646-.646,12.92,12.92,0,0,1,.248-2.938A6.245,6.245,0,0,1,76.5,18.762,8.321,8.321,0,0,0,77.828,21.2a7.358,7.358,0,0,1,1.656,4.032c.008.111.016.223.016.342A4.012,4.012,0,0,1,75.625,29.707Z" transform="translate(-64 0)" fill="url(#linear-gradient)"/>
    </g>
  </g>
</svg>
