<svg xmlns="http://www.w3.org/2000/svg" xmlns:xlink="http://www.w3.org/1999/xlink" width="54" height="54" viewBox="0 0 54 54"><defs><linearGradient id="a" x1="0.5" x2="0.5" y2="1" gradientUnits="objectBoundingBox"><stop offset="0" stop-color="#b2b2b2"/><stop offset="1" stop-color="#8a8a8a"/></linearGradient></defs><g transform="translate(-21 -576)"><circle cx="27" cy="27" r="27" transform="translate(21 576)" fill="url(#a)"/><g transform="translate(33 575.35)"><g transform="translate(0 12.75)"><path d="M16.247,12.75A14.451,14.451,0,0,0,3.559,20.177L0,16.618V26.676H10.058L5.725,22.344A11.644,11.644,0,1,1,16.247,39.055,11.747,11.747,0,0,1,5.261,31.318H2.012A14.723,14.723,0,1,0,16.247,12.75Zm-2.321,7.737v7.892L21.2,32.711,22.437,30.7l-6.189-3.714v-6.5Z" transform="translate(0 -12.75)" fill="#fff"/></g></g></g></svg>