<svg xmlns="http://www.w3.org/2000/svg" xmlns:xlink="http://www.w3.org/1999/xlink" width="54" height="54" viewBox="0 0 54 54"><defs><linearGradient id="a" x1="0.5" x2="0.5" y2="1" gradientUnits="objectBoundingBox"><stop offset="0" stop-color="#00c6fb"/><stop offset="1" stop-color="#005bea"/></linearGradient></defs><g transform="translate(-273 -576)"><g transform="translate(272.999 576)"><g transform="translate(0.001)"><path d="M27,0A27,27,0,1,0,54,27,27,27,0,0,0,27,0Zm.082,39.738h-11.7c0-8.434,7.407-8.432,9.051-10.638l.188-1.006a8.061,8.061,0,0,1-3.94-7.292c0-4.348,2.828-7.873,6.316-7.873s6.316,3.525,6.316,7.873a8.088,8.088,0,0,1-3.88,7.265l.214,1.143c1.8,2.1,8.964,2.235,8.964,10.528Z" transform="translate(-0.001)" fill="url(#a)"/></g></g></g></svg>