<svg xmlns="http://www.w3.org/2000/svg" xmlns:xlink="http://www.w3.org/1999/xlink" width="66.5" height="66.5" viewBox="0 0 66.5 66.5"><defs><linearGradient id="a" x1="0.5" x2="0.5" y2="1" gradientUnits="objectBoundingBox"><stop offset="0" stop-color="#00c6fb"/><stop offset="1" stop-color="#005bea"/></linearGradient></defs><path d="M33.25,0A33.25,33.25,0,1,0,66.5,33.25,33.25,33.25,0,0,0,33.25,0Zm.1,48.936H18.946c0-10.387,9.122-10.384,11.146-13.1l.232-1.238c-2.844-1.441-4.852-4.916-4.852-8.98,0-5.354,3.483-9.7,7.778-9.7s7.778,4.341,7.778,9.7c0,4.029-1.972,7.483-4.778,8.947l.264,1.407c2.221,2.584,11.04,2.753,11.04,12.965Z" transform="translate(-0.001)" fill="url(#a)"/></svg>