<svg xmlns="http://www.w3.org/2000/svg" xmlns:xlink="http://www.w3.org/1999/xlink" width="30.667" height="30.667" viewBox="0 0 30.667 30.667">
  <defs>
    <clipPath id="clip-path">
      <rect width="30.667" height="30.667" fill="none"/>
    </clipPath>
  </defs>
  <g id="Component_11_1" data-name="Component 11 – 1" clip-path="url(#clip-path)">
    <g id="Symbol_71_1" data-name="Symbol 71 – 1" clip-path="url(#clip-path)">
      <rect id="rectangle" width="30.667" height="30.667" fill="none"/>
      <path id="path" d="M26.667,13.917H9.383l7.933-7.933L15.333,4,4,15.333,15.333,26.667l1.983-1.983L9.383,16.75H26.667V13.917Z" fill="#fff" fill-rule="evenodd" opacity="0.54"/>
    </g>
    <g id="Symbol_71_9" data-name="Symbol 71 – 9" clip-path="url(#clip-path)">
      <rect id="rectangle-2" data-name="rectangle" width="30.667" height="30.667" fill="none"/>
      <path id="path-2" data-name="path" d="M26.667,13.917H9.383l7.933-7.933L15.333,4,4,15.333,15.333,26.667l1.983-1.983L9.383,16.75H26.667V13.917Z" fill="#fff" fill-rule="evenodd" opacity="0.54"/>
    </g>
    <g id="Symbol_71_10" data-name="Symbol 71 – 10" clip-path="url(#clip-path)">
      <rect id="rectangle-3" data-name="rectangle" width="30.667" height="30.667" fill="none"/>
      <path id="path-3" data-name="path" d="M26.667,13.917H9.383l7.933-7.933L15.333,4,4,15.333,15.333,26.667l1.983-1.983L9.383,16.75H26.667V13.917Z" fill="#fff" fill-rule="evenodd" opacity="0.54"/>
    </g>
    <g id="Symbol_71_11" data-name="Symbol 71 – 11" clip-path="url(#clip-path)">
      <rect id="rectangle-4" data-name="rectangle" width="30.667" height="30.667" fill="none"/>
      <path id="path-4" data-name="path" d="M26.667,13.917H9.383l7.933-7.933L15.333,4,4,15.333,15.333,26.667l1.983-1.983L9.383,16.75H26.667V13.917Z" fill="#fff" fill-rule="evenodd" opacity="0.54"/>
    </g>
    <g id="Symbol_71_12" data-name="Symbol 71 – 12" clip-path="url(#clip-path)">
      <rect id="rectangle-5" data-name="rectangle" width="30.667" height="30.667" fill="none"/>
      <path id="path-5" data-name="path" d="M26.667,13.917H9.383l7.933-7.933L15.333,4,4,15.333,15.333,26.667l1.983-1.983L9.383,16.75H26.667V13.917Z" fill="#fff" fill-rule="evenodd" opacity="0.54"/>
    </g>
    <g id="Symbol_71_13" data-name="Symbol 71 – 13" clip-path="url(#clip-path)">
      <rect id="rectangle-6" data-name="rectangle" width="30.667" height="30.667" fill="none"/>
      <path id="path-6" data-name="path" d="M26.667,13.917H9.383l7.933-7.933L15.333,4,4,15.333,15.333,26.667l1.983-1.983L9.383,16.75H26.667V13.917Z" fill="#fff" fill-rule="evenodd" opacity="0.54"/>
    </g>
  </g>
</svg>
